<svg xmlns="http://www.w3.org/2000/svg" xmlns:xlink="http://www.w3.org/1999/xlink" width="40" zoomAndPan="magnify" viewBox="0 0 30 30.000001" height="40" preserveAspectRatio="xMidYMid meet" version="1.0"><defs><clipPath id="b297663e3b"><path d="M 0.484375 0 L 29.515625 0 L 29.515625 29.03125 L 0.484375 29.03125 Z M 0.484375 0 " clip-rule="nonzero"/></clipPath><clipPath id="64024129d6"><path d="M 1.933594 17 L 27 17 L 27 29.03125 L 1.933594 29.03125 Z M 1.933594 17 " clip-rule="nonzero"/></clipPath><clipPath id="9e1fd713a7"><path d="M 12.246094 5.6875 L 28.050781 5.6875 L 28.050781 21.753906 L 12.246094 21.753906 Z M 12.246094 5.6875 " clip-rule="nonzero"/></clipPath></defs><g clip-path="url(#b297663e3b)"><path fill="#ffffff" d="M 0.484375 0 L 29.515625 0 L 29.515625 36.289062 L 0.484375 36.289062 Z M 0.484375 0 " fill-opacity="1" fill-rule="nonzero"/><path fill="#ffffff" d="M 0.484375 0 L 29.515625 0 L 29.515625 29.03125 L 0.484375 29.03125 Z M 0.484375 0 " fill-opacity="1" fill-rule="nonzero"/><path fill="#ffffff" d="M 0.484375 0 L 29.515625 0 L 29.515625 29.03125 L 0.484375 29.03125 Z M 0.484375 0 " fill-opacity="1" fill-rule="nonzero"/></g><path fill="#231f20" d="M 17.625 6.402344 C 19.308594 6.097656 20.425781 4.484375 20.121094 2.800781 C 19.816406 1.117188 18.203125 0 16.519531 0.308594 C 14.835938 0.613281 13.71875 2.226562 14.023438 3.910156 C 14.328125 5.59375 15.941406 6.710938 17.625 6.402344 " fill-opacity="1" fill-rule="nonzero"/><path fill="#231f20" d="M 14.050781 16.46875 L 14.050781 16.472656 C 14.117188 16.46875 14.179688 16.472656 14.246094 16.46875 C 14.3125 16.472656 14.375 16.46875 14.441406 16.472656 L 14.441406 16.46875 C 18.636719 16.4375 21.527344 19.460938 21.527344 19.460938 L 23.339844 20.167969 C 20.667969 16.03125 15.84375 15.515625 14.441406 15.457031 L 14.441406 15.449219 C 14.441406 15.449219 14.371094 15.445312 14.246094 15.449219 C 14.121094 15.445312 14.050781 15.449219 14.050781 15.449219 L 14.050781 15.457031 C 12.648438 15.515625 7.824219 16.03125 5.152344 20.167969 L 6.960938 19.460938 C 6.960938 19.460938 9.855469 16.4375 14.050781 16.46875 " fill-opacity="1" fill-rule="nonzero"/><g clip-path="url(#64024129d6)"><path fill="#231f20" d="M 25.621094 22.394531 C 23.875 21.535156 22.234375 20.757812 20.890625 20.128906 C 18.671875 17.890625 16.335938 17.199219 14.292969 17.203125 L 14.292969 17.199219 C 14.277344 17.199219 14.261719 17.203125 14.246094 17.203125 C 14.230469 17.203125 14.214844 17.199219 14.199219 17.199219 L 14.199219 17.203125 C 12.152344 17.199219 9.820312 17.890625 7.601562 20.128906 C 6.257812 20.757812 4.617188 21.535156 2.871094 22.394531 C 2.316406 22.667969 1.957031 23.234375 1.953125 23.851562 C 1.945312 24.472656 2.289062 25.046875 2.839844 25.332031 C 3.394531 25.617188 4.183594 26.007812 5.066406 26.441406 C 7.714844 27.730469 11.1875 29.371094 11.1875 29.371094 C 12.011719 29.757812 12.992188 29.40625 13.378906 28.585938 C 13.769531 27.765625 13.417969 26.785156 12.59375 26.398438 C 12.59375 26.398438 12.5 26.351562 12.328125 26.269531 C 11.722656 25.984375 10.183594 25.253906 8.566406 24.476562 C 8.160156 24.28125 7.746094 24.082031 7.34375 23.886719 C 7.957031 23.597656 8.527344 23.328125 9.054688 23.082031 C 9.488281 23.195312 9.960938 23.289062 10.464844 23.355469 C 10.285156 22.894531 10.183594 22.398438 10.183594 21.875 C 10.183594 19.632812 12.003906 17.816406 14.246094 17.816406 C 16.488281 17.816406 18.308594 19.632812 18.308594 21.875 C 18.308594 22.398438 18.207031 22.894531 18.027344 23.355469 C 18.53125 23.289062 19.003906 23.195312 19.4375 23.082031 C 19.964844 23.328125 20.535156 23.597656 21.148438 23.886719 C 20.058594 24.417969 18.902344 24.96875 17.957031 25.417969 C 17.359375 25.703125 16.84375 25.949219 16.476562 26.121094 C 16.113281 26.292969 15.898438 26.398438 15.898438 26.398438 C 15.074219 26.785156 14.722656 27.765625 15.113281 28.585938 C 15.5 29.40625 16.480469 29.757812 17.304688 29.371094 C 17.304688 29.371094 18.847656 28.640625 20.660156 27.773438 C 21.566406 27.339844 22.539062 26.871094 23.421875 26.441406 C 24.308594 26.007812 25.097656 25.617188 25.652344 25.332031 C 26.203125 25.046875 26.546875 24.472656 26.539062 23.851562 C 26.535156 23.234375 26.175781 22.667969 25.621094 22.394531 " fill-opacity="1" fill-rule="nonzero"/></g><path fill="#231f20" d="M 17.507812 21.875 C 17.507812 20.074219 16.046875 18.617188 14.246094 18.617188 C 12.445312 18.617188 10.984375 20.074219 10.984375 21.875 C 10.984375 23.675781 12.445312 25.136719 14.246094 25.136719 C 16.046875 25.136719 17.507812 23.675781 17.507812 21.875 " fill-opacity="1" fill-rule="nonzero"/><g clip-path="url(#9e1fd713a7)"><path fill="#231f20" d="M 25.699219 8.679688 C 24.75 7.179688 22.378906 5.191406 20.890625 5.820312 C 20.183594 6.121094 19.597656 6.957031 19.339844 7.953125 C 19.007812 8.429688 18.628906 8.964844 18.265625 9.484375 C 17.964844 9.90625 17.675781 10.316406 17.429688 10.664062 C 17.253906 10.90625 17.101562 11.117188 16.980469 11.28125 C 16.953125 11.289062 16.917969 11.300781 16.875 11.316406 C 16.664062 11.378906 16.335938 11.449219 15.984375 11.503906 C 15.460938 11.585938 14.875 11.644531 14.429688 11.679688 C 14.207031 11.699219 14.019531 11.710938 13.886719 11.71875 C 13.824219 11.722656 13.773438 11.722656 13.738281 11.726562 L 13.691406 11.726562 C 12.882812 11.761719 12.257812 12.445312 12.292969 13.253906 C 12.328125 14.058594 13.011719 14.683594 13.816406 14.648438 C 13.839844 14.648438 14.804688 14.605469 15.875 14.472656 C 16.417969 14.402344 16.980469 14.3125 17.507812 14.171875 C 17.777344 14.101562 18.035156 14.019531 18.304688 13.898438 C 18.4375 13.835938 18.578125 13.761719 18.726562 13.65625 C 18.871094 13.554688 19.03125 13.421875 19.1875 13.214844 L 19.191406 13.210938 C 19.390625 12.945312 19.703125 12.511719 20.074219 11.992188 C 20.171875 11.851562 20.277344 11.707031 20.378906 11.558594 C 20.84375 12.140625 21.429688 12.945312 21.996094 13.902344 C 22.347656 14.496094 22.164062 15.382812 21.917969 16.722656 C 22.757812 17.5625 24.421875 19.03125 25.074219 20.710938 C 26.511719 21.355469 27.210938 21.894531 27.28125 21.71875 C 29.171875 17.027344 27.160156 10.996094 25.699219 8.679688 " fill-opacity="1" fill-rule="nonzero"/></g></svg>