<svg xmlns="http://www.w3.org/2000/svg" xmlns:xlink="http://www.w3.org/1999/xlink" width="40" zoomAndPan="magnify" viewBox="0 0 30 30.000001" height="40" preserveAspectRatio="xMidYMid meet" version="1.0"><defs><clipPath id="33622e7f0e"><path d="M 0.484375 0 L 29.515625 0 L 29.515625 29.03125 L 0.484375 29.03125 Z M 0.484375 0 " clip-rule="nonzero"/></clipPath><clipPath id="feef4327ac"><path d="M 1.171875 0.691406 L 28.753906 0.691406 L 28.753906 28.269531 L 1.171875 28.269531 Z M 1.171875 0.691406 " clip-rule="nonzero"/></clipPath></defs><g clip-path="url(#33622e7f0e)"><path fill="#ffffff" d="M 0.484375 0 L 29.515625 0 L 29.515625 36.289062 L 0.484375 36.289062 Z M 0.484375 0 " fill-opacity="1" fill-rule="nonzero"/><path fill="#ffffff" d="M 0.484375 0 L 29.515625 0 L 29.515625 29.03125 L 0.484375 29.03125 Z M 0.484375 0 " fill-opacity="1" fill-rule="nonzero"/><path fill="#ffffff" d="M 0.484375 0 L 29.515625 0 L 29.515625 29.03125 L 0.484375 29.03125 Z M 0.484375 0 " fill-opacity="1" fill-rule="nonzero"/></g><g clip-path="url(#feef4327ac)"><path fill="#000000" d="M 25.058594 13.710938 C 23.691406 12.292969 22.105469 11.183594 20.304688 10.382812 C 18.5 9.585938 16.613281 9.15625 14.644531 9.097656 C 8.011719 8.980469 3.917969 13.449219 3.335938 14.109375 C 3.191406 14.28125 3.042969 14.449219 2.898438 14.625 C 3.046875 14.792969 3.261719 15.035156 3.53125 15.308594 C 5.394531 17.179688 9.3125 20.070312 14.644531 19.941406 C 16.613281 19.882812 18.5 19.453125 20.300781 18.65625 C 22.105469 17.859375 23.691406 16.75 25.058594 15.332031 C 25.320312 15.074219 25.582031 14.8125 25.839844 14.550781 C 25.582031 14.269531 25.320312 13.988281 25.058594 13.710938 Z M 4.851562 14.519531 C 5.917969 13.464844 7.125 12.609375 8.476562 11.953125 C 9.824219 11.296875 11.246094 10.871094 12.734375 10.683594 C 12.355469 10.84375 12.011719 11.054688 11.699219 11.316406 C 11.382812 11.578125 11.113281 11.878906 10.890625 12.21875 C 10.664062 12.558594 10.492188 12.925781 10.375 13.316406 C 10.257812 13.707031 10.195312 14.109375 10.195312 14.519531 C 10.195312 14.925781 10.253906 15.328125 10.371094 15.71875 C 10.488281 16.109375 10.660156 16.476562 10.886719 16.816406 C 11.109375 17.160156 11.378906 17.460938 11.695312 17.722656 C 12.007812 17.984375 12.351562 18.195312 12.726562 18.355469 C 11.238281 18.167969 9.820312 17.742188 8.472656 17.085938 C 7.125 16.429688 5.917969 15.574219 4.851562 14.519531 Z M 14.371094 17.207031 C 14.015625 17.207031 13.671875 17.140625 13.34375 17.003906 C 13.015625 16.867188 12.722656 16.675781 12.472656 16.421875 C 12.21875 16.171875 12.023438 15.878906 11.886719 15.550781 C 11.75 15.222656 11.683594 14.878906 11.683594 14.523438 C 11.683594 14.167969 11.75 13.824219 11.886719 13.496094 C 12.023438 13.164062 12.21875 12.875 12.46875 12.621094 C 12.722656 12.371094 13.011719 12.175781 13.34375 12.039062 C 13.671875 11.902344 14.015625 11.835938 14.371094 11.835938 C 14.726562 11.835938 15.070312 11.902344 15.398438 12.039062 C 15.726562 12.175781 16.019531 12.371094 16.269531 12.625 C 16.523438 12.875 16.714844 13.167969 16.851562 13.496094 C 16.988281 13.824219 17.054688 14.167969 17.054688 14.523438 C 17.054688 14.878906 16.988281 15.222656 16.851562 15.550781 C 16.714844 15.878906 16.519531 16.167969 16.269531 16.421875 C 16.015625 16.671875 15.726562 16.867188 15.398438 17.003906 C 15.070312 17.140625 14.726562 17.207031 14.371094 17.207031 Z M 16.035156 18.347656 C 16.40625 18.183594 16.75 17.972656 17.058594 17.710938 C 17.371094 17.449219 17.636719 17.148438 17.859375 16.808594 C 18.082031 16.46875 18.25 16.101562 18.367188 15.714844 C 18.484375 15.324219 18.542969 14.925781 18.542969 14.519531 C 18.539062 14.113281 18.484375 13.714844 18.367188 13.328125 C 18.25 12.9375 18.078125 12.574219 17.855469 12.234375 C 17.632812 11.894531 17.367188 11.59375 17.054688 11.332031 C 16.746094 11.070312 16.402344 10.859375 16.03125 10.695312 C 17.492188 10.898438 18.886719 11.324219 20.210938 11.980469 C 21.535156 12.632812 22.722656 13.480469 23.769531 14.519531 C 22.722656 15.558594 21.535156 16.40625 20.210938 17.058594 C 18.890625 17.714844 17.496094 18.144531 16.035156 18.347656 Z M 1.472656 6.230469 C 1.34375 6.082031 1.289062 5.914062 1.300781 5.71875 C 1.3125 5.527344 1.390625 5.363281 1.53125 5.234375 C 1.671875 5.09375 1.839844 5.019531 2.035156 5.015625 C 2.234375 5.011719 2.40625 5.078125 2.550781 5.210938 C 3.113281 5.761719 3.671875 6.316406 4.214844 6.882812 C 4.3125 7.027344 4.390625 7.183594 4.449219 7.351562 C 4.421875 7.675781 4.261719 7.910156 3.964844 8.046875 C 3.835938 8.117188 3.703125 8.144531 3.558594 8.125 C 3.414062 8.105469 3.292969 8.046875 3.1875 7.945312 C 2.601562 7.386719 2.027344 6.816406 1.472656 6.230469 Z M 14.328125 3.675781 C 14.324219 3.300781 14.328125 2.925781 14.328125 2.554688 C 14.328125 2.179688 14.324219 1.804688 14.328125 1.429688 C 14.328125 1.226562 14.402344 1.050781 14.546875 0.90625 C 14.691406 0.757812 14.867188 0.6875 15.070312 0.6875 C 15.277344 0.6875 15.453125 0.757812 15.597656 0.90625 C 15.742188 1.050781 15.816406 1.226562 15.816406 1.429688 C 15.824219 2.1875 15.824219 2.941406 15.816406 3.699219 C 15.8125 3.902344 15.738281 4.078125 15.589844 4.222656 C 15.441406 4.363281 15.265625 4.433594 15.0625 4.433594 C 14.855469 4.429688 14.679688 4.355469 14.539062 4.207031 C 14.394531 4.058594 14.324219 3.882812 14.328125 3.675781 Z M 25.65625 8.105469 C 25.585938 7.96875 25.5625 7.820312 25.585938 7.667969 C 25.613281 7.515625 25.683594 7.382812 25.796875 7.277344 C 26.175781 6.882812 26.566406 6.5 26.953125 6.113281 C 27.105469 5.960938 27.257812 5.804688 27.414062 5.65625 C 27.558594 5.515625 27.730469 5.441406 27.929688 5.441406 C 28.132812 5.441406 28.304688 5.507812 28.449219 5.648438 C 28.601562 5.789062 28.679688 5.960938 28.683594 6.167969 C 28.6875 6.375 28.617188 6.550781 28.476562 6.699219 C 27.9375 7.25 27.394531 7.796875 26.835938 8.332031 C 26.714844 8.425781 26.582031 8.496094 26.433594 8.542969 C 26.273438 8.5625 26.117188 8.53125 25.972656 8.449219 C 25.832031 8.371094 25.722656 8.253906 25.65625 8.105469 Z M 4.449219 21.609375 C 4.390625 21.777344 4.3125 21.933594 4.214844 22.074219 C 3.667969 22.644531 3.113281 23.199219 2.550781 23.75 C 2.40625 23.882812 2.234375 23.949219 2.035156 23.945312 C 1.839844 23.941406 1.671875 23.867188 1.53125 23.726562 C 1.390625 23.597656 1.3125 23.433594 1.300781 23.242188 C 1.289062 23.046875 1.34375 22.878906 1.472656 22.730469 C 2.027344 22.144531 2.601562 21.574219 3.1875 21.015625 C 3.292969 20.914062 3.414062 20.855469 3.558594 20.835938 C 3.703125 20.820312 3.835938 20.84375 3.964844 20.914062 C 4.261719 21.054688 4.421875 21.285156 4.449219 21.609375 Z M 15.816406 25.265625 C 15.824219 26.019531 15.824219 26.777344 15.816406 27.53125 C 15.816406 27.738281 15.746094 27.914062 15.597656 28.058594 C 15.453125 28.203125 15.277344 28.277344 15.074219 28.277344 C 14.867188 28.277344 14.691406 28.203125 14.546875 28.058594 C 14.402344 27.914062 14.328125 27.738281 14.328125 27.53125 C 14.324219 27.15625 14.328125 26.785156 14.328125 26.410156 C 14.328125 26.035156 14.328125 25.660156 14.328125 25.289062 C 14.328125 25.082031 14.398438 24.90625 14.539062 24.757812 C 14.683594 24.609375 14.859375 24.535156 15.0625 24.53125 C 15.269531 24.53125 15.445312 24.597656 15.59375 24.742188 C 15.742188 24.886719 15.816406 25.0625 15.820312 25.265625 Z M 28.476562 22.261719 C 28.621094 22.410156 28.691406 22.585938 28.6875 22.789062 C 28.6875 22.996094 28.613281 23.167969 28.464844 23.3125 C 28.320312 23.457031 28.144531 23.527344 27.9375 23.527344 C 27.734375 23.527344 27.558594 23.453125 27.414062 23.304688 C 27.257812 23.15625 27.105469 23 26.953125 22.847656 C 26.566406 22.460938 26.175781 22.078125 25.796875 21.683594 C 25.683594 21.578125 25.613281 21.445312 25.589844 21.292969 C 25.5625 21.140625 25.585938 20.992188 25.65625 20.855469 C 25.726562 20.707031 25.832031 20.589844 25.976562 20.511719 C 26.117188 20.429688 26.273438 20.398438 26.433594 20.417969 C 26.582031 20.464844 26.714844 20.535156 26.835938 20.628906 C 27.394531 21.160156 27.9375 21.710938 28.476562 22.261719 Z M 28.476562 22.261719 " fill-opacity="1" fill-rule="nonzero"/></g></svg>